<?xml version="1.0" encoding="UTF-8" standalone="no"?>
<!-- Created with Inkscape (http://www.inkscape.org/) -->
<svg
   xmlns:svg="http://www.w3.org/2000/svg"
   xmlns="http://www.w3.org/2000/svg"
   version="1.0"
   width="800"
   height="370.73801"
   viewBox="0 0 800 370.738"
   id="Layer_1"
   xml:space="preserve"><defs
   id="defs36" />
<g
   id="g3">
	<path
   d="M 653.785,217.676 C 653.785,217.676 654.149,217.305 654.149,216.575 C 654.149,216.204 654.149,215.846 653.785,215.475 L 653.785,217.676 L 653.785,217.676 z "
   style="fill:white;fill-rule:evenodd"
   id="path5" />
	<path
   d="M 639.924,237.124 C 639.924,236.766 639.567,236.395 638.83,236.023 L 638.83,237.866 C 639.202,237.866 639.567,237.866 639.924,237.124 L 639.924,237.124 z "
   style="fill:white;fill-rule:evenodd"
   id="path7" />
	<path
   d="M 610.031,278.976 C 610.395,278.976 610.76,278.247 610.76,277.875 C 610.76,277.146 610.396,276.774 610.031,276.774 L 610.031,278.976 L 610.031,278.976 z "
   style="fill:white;fill-rule:evenodd"
   id="path9" />
	<path
   d="M 625.342,257.313 C 625.342,256.956 625.342,256.584 624.613,256.213 L 624.613,258.427 C 624.613,258.056 625.342,258.056 625.342,257.313 L 625.342,257.313 z "
   style="fill:white;fill-rule:evenodd"
   id="path11" />
	<path
   d="M 800,11.381 C 799.635,10.645 799.635,10.645 799.271,10.645 L 555.698,0 L 408.753,206.302 L 668.732,196.015 C 669.467,196.015 669.826,195.286 669.826,194.914 C 669.468,194.185 669.097,194.185 668.732,194.185 L 453.965,185.005 L 683.314,175.824 C 683.685,175.46 684.049,175.095 684.049,174.724 C 683.685,173.995 683.685,173.623 683.314,173.623 L 468.554,164.45 L 697.903,155.269 C 698.632,154.905 698.632,154.54 698.632,154.54 C 698.632,153.433 697.903,153.433 697.903,153.433 L 482.772,144.259 L 712.121,134.714 C 712.492,134.714 712.857,134.714 713.215,133.979 C 712.858,133.25 712.492,132.878 712.121,132.878 L 497.361,123.704 L 726.711,114.524 C 727.44,114.16 727.805,113.795 727.805,113.424 C 727.44,112.695 727.076,112.323 726.711,112.323 L 511.944,103.143 L 741.293,94.334 C 742.028,93.969 742.028,93.605 742.028,93.233 C 742.028,92.869 742.028,92.133 741.293,92.133 L 526.162,82.96 L 755.882,73.78 C 756.247,73.416 756.611,73.044 756.611,72.68 C 756.247,71.944 756.247,71.944 755.882,71.944 L 541.115,62.406 L 770.099,53.225 C 770.828,52.854 771.193,52.489 771.193,52.489 C 770.829,51.753 770.464,51.389 770.099,51.389 L 555.333,42.209 L 784.688,32.67 C 785.417,32.67 785.782,31.935 785.782,31.935 C 785.417,31.199 785.053,30.834 784.688,30.834 L 569.921,21.654 L 799.27,12.48 C 799.635,12.481 800,11.745 800,11.381 L 800,11.381 z "
   style="fill:red;fill-rule:evenodd"
   id="path13" />
	<polygon
   points="653.785,215.476 490.792,205.56 430.269,289.991 610.031,278.976 610.031,276.774 475.481,267.601 624.613,258.428 624.613,256.214 490.063,247.411 638.831,237.866 638.831,236.023 504.281,226.85 653.785,217.676 653.785,215.476 "
   style="fill:red;fill-rule:evenodd"
   id="polygon15" />
	<path
   d="M 474.023,0.364 L 261.444,0.364 L 57.614,289.249 L 169.554,289.249 L 225.71,209.231 L 301.552,209.231 L 357.707,130.678 L 281.494,130.678 L 319.057,77.452 C 354.055,76.716 383.591,69.743 407.659,56.897 C 425.165,46.982 447.403,27.898 474.023,0.364 L 474.023,0.364 z "
   style="fill-rule:evenodd"
   id="path17" />
	<path
   d="M 39.75,342.117 L 46.312,332.572 C 52.51,332.201 57.614,331.1 61.988,328.9 C 64.905,327.428 68.922,324.128 73.654,318.984 L 36.104,318.984 L 0,370.01 L 19.693,370.01 L 29.901,356.064 L 43.396,356.064 L 53.239,342.118 L 39.75,342.118 L 39.75,342.117 z "
   style="fill-rule:evenodd"
   id="path19" />
	<path
   d="M 64.541,339.917 C 59.802,343.218 55.792,347.619 53.24,353.134 C 50.688,357.906 49.959,361.937 51.417,365.609 C 52.511,369.281 56.521,370.739 62.354,370.739 L 62.354,370.739 C 68.558,370.739 74.02,368.91 79.13,365.609 C 83.869,361.566 87.88,357.165 90.067,353.134 C 92.619,347.99 93.348,343.575 91.89,339.917 C 90.796,336.616 87.151,334.773 80.953,334.773 C 74.391,334.773 68.922,336.616 64.541,339.917 L 64.541,339.917 L 64.541,339.917 z M 65.641,358.636 L 65.27,356.064 L 65.641,353.864 L 66.364,353.135 C 67.099,351.292 68.558,349.463 70.381,347.991 C 71.833,346.519 73.655,345.79 75.12,345.79 C 76.943,345.79 77.672,346.519 78.037,347.991 C 78.402,349.092 77.672,350.562 76.943,353.135 C 76.579,353.135 76.579,353.492 76.214,353.864 L 74.391,356.064 L 71.832,358.636 L 68.186,359.736 C 66.364,359.735 65.641,359.364 65.641,358.636 L 65.641,358.636 z "
   style="fill-rule:evenodd"
   id="path21" />
	<path
   d="M 201.278,353.863 L 199.455,356.793 L 197.997,360.836 C 197.268,363.036 197.633,364.866 199.091,367.08 C 200.549,368.909 203.83,370.01 209.299,370.01 C 214.774,370.01 219.507,368.909 223.159,367.08 C 226.805,365.608 229.721,363.407 232.638,360.836 L 251.237,336.244 L 235.19,336.244 L 222.431,353.863 C 222.066,356.063 220.243,357.164 217.691,357.906 C 215.139,358.635 214.774,357.164 216.598,353.863 L 229.357,336.244 L 214.039,336.244 L 201.278,353.863 L 201.278,353.863 z "
   style="fill-rule:evenodd"
   id="path23" />
	<path
   d="M 199.819,345.047 L 200.913,343.218 C 201.649,341.375 202.007,339.546 201.278,337.345 C 200.549,335.873 198.361,334.774 194.716,334.774 L 187.424,335.874 L 179.768,339.918 C 180.133,338.075 179.768,336.617 177.939,335.874 L 172.477,334.774 L 165.55,335.874 L 157.887,339.547 L 160.439,335.874 L 147.679,335.874 L 124.705,370.011 L 139.659,370.011 L 154.971,347.249 C 154.971,345.79 156.794,345.048 159.71,344.677 C 162.991,344.677 164.085,345.048 163.72,347.249 L 148.41,370.01 L 159.711,370.01 L 175.758,347.248 C 176.116,345.789 177.574,345.047 180.491,345.047 C 183.779,344.676 184.866,345.418 184.143,347.248 L 168.825,370.01 L 183.05,370.01 L 198.726,346.89 C 199.09,346.519 199.455,345.789 199.819,345.047 L 199.819,345.047 z "
   style="fill-rule:evenodd"
   id="path25" />
	<polygon
   points="285.147,323.757 268.006,323.757 234.095,370.01 251.594,370.01 285.147,323.757 "
   style="fill-rule:evenodd"
   id="polygon27" />
	<path
   d="M 280.401,342.476 C 275.662,346.89 272.38,352.021 271.287,357.164 C 270.193,363.036 270.923,366.709 274.204,368.909 C 278.221,371.11 283.689,370.01 291.71,365.608 L 288.429,370.009 L 301.918,370.009 L 324.527,336.243 L 311.032,336.243 L 308.48,340.273 C 307.386,336.615 304.47,334.772 299.001,334.772 C 291.709,334.773 285.511,337.345 280.401,342.476 L 280.401,342.476 L 280.401,342.476 z M 285.876,359.007 C 284.775,357.906 284.775,356.793 285.511,354.592 C 286.24,352.392 287.692,350.191 289.521,348.348 C 294.625,343.947 298.271,342.476 300.822,344.676 C 303.01,347.248 301.916,351.291 297.176,355.334 C 292.438,360.106 288.428,361.565 285.876,359.007 L 285.876,359.007 z "
   style="fill-rule:evenodd"
   id="path29" />
	<path
   d="M 123.978,336.244 L 108.66,336.244 L 84.963,370.01 L 101.004,370.01 L 114.135,351.662 C 115.958,348.719 118.874,346.89 122.156,346.518 C 125.437,345.789 127.989,347.99 129.812,352.02 L 139.297,338.074 C 137.839,335.873 136.009,335.144 133.092,334.773 C 129.453,334.402 125.436,336.616 121.426,339.917 L 123.978,336.244 L 123.978,336.244 z "
   style="fill-rule:evenodd"
   id="path31" />
	<path
   d="M 405.107,318.255 L 390.524,318.255 C 385.414,323.399 381.403,326.7 378.487,328.171 C 374.112,330.73 369.008,331.844 362.811,332.201 L 355.884,341.746 L 369.738,341.746 L 359.524,355.692 L 346.042,355.692 L 335.828,370.009 L 382.863,370.009 L 393.442,355.333 L 378.853,355.333 L 405.107,318.255 L 405.107,318.255 z "
   style="fill-rule:evenodd"
   id="path33" />
</g>
</svg>